<?xml version="1.0" encoding="utf-8"?>
<!-- Generator: Adobe Illustrator 23.1.0, SVG Export Plug-In . SVG Version: 6.00 Build 0)  -->
<svg version="1.1" xmlns="http://www.w3.org/2000/svg" xmlns:xlink="http://www.w3.org/1999/xlink" x="0px" y="0px"
	 viewBox="0 0 200 200" style="enable-background:new 0 0 200 200;" xml:space="preserve">
<style type="text/css">
	.st0{opacity:0.5;}
	.st1{opacity:0.4;}
</style>
<g id="Слой_1">
	<rect x="105" y="83" class="st0" width="9" height="38"/>
	<rect x="88" y="83" class="st0" width="9" height="38"/>
	<rect x="72" y="67" class="st0" width="8" height="62"/>
	<rect x="122" y="67" class="st0" width="8" height="62"/>
	<rect x="68" y="67" class="st0" width="66" height="8"/>
	<rect x="88" y="62" class="st0" width="26" height="5"/>
	<rect x="77" y="135" class="st0" width="48" height="2"/>
	<rect x="74" y="132" class="st0" width="54" height="3"/>
	<rect x="72" y="129" class="st0" width="58" height="3"/>
</g>
<g id="Слой_1__x28_копия_x29_">
	<rect x="107" y="84" class="st1" width="5" height="38"/>
	<rect x="90" y="84" class="st1" width="5" height="38"/>
	<rect x="70" y="68" class="st1" width="8" height="62"/>
	<rect x="120" y="68" class="st1" width="8" height="62"/>
	<rect x="66" y="68" class="st1" width="66" height="8"/>
	<rect x="86" y="63" class="st1" width="26" height="5"/>
	<rect x="75" y="136" class="st1" width="48" height="2"/>
	<rect x="72" y="133" class="st1" width="54" height="3"/>
	<rect x="70" y="130" class="st1" width="58" height="3"/>
</g>
<g id="Слой_1__x28_копия2_x29_">
	<rect x="106" y="83" width="7" height="38"/>
	<rect x="89" y="83" width="7" height="38"/>
	<rect x="71" y="67" width="8" height="62"/>
	<rect x="121" y="67" width="8" height="62"/>
	<rect x="67" y="67" width="66" height="8"/>
	<rect x="87" y="62" width="26" height="5"/>
	<rect x="76" y="135" width="48" height="2"/>
	<rect x="73" y="132" width="54" height="3"/>
	<rect x="71" y="129" width="58" height="3"/>
</g>
</svg>
